<?xml version="1.0" encoding="utf-8"?>
<!-- Generator: Adobe Illustrator 26.3.1, SVG Export Plug-In . SVG Version: 6.00 Build 0)  -->
<svg version="1.1" id="Layer_1" xmlns="http://www.w3.org/2000/svg" xmlns:xlink="http://www.w3.org/1999/xlink" x="0px" y="0px"
	 viewBox="0 0 450 180" style="enable-background:new 0 0 450 180;" xml:space="preserve">
<style type="text/css">
	.st0{fill:#A51C30;}
</style>
<g>
	<path class="st0" d="M224.6,133.3c5.5-1.2,5.5-1.2,5.5-9.1V94.9c0-10,0-10-6.5-14v-2.2c8.8-2.5,20.1-4.8,29.7-5.5
		c-0.5,5.5-1,10.6-1,16.9v34.1c0,7.8,0,7.8,5.6,9.1v3.7h-33.4v-3.7H224.6z M230.5,54.3c0-6.5,4.9-11.3,11.3-11.3
		c6,0,10.7,4.8,10.7,11.3c0,5.6-4.7,10.7-10.7,10.7C235.4,65,230.5,59.9,230.5,54.3z"/>
</g>
<g>
	<path class="st0" d="M8.1,125.6c-2.3,6.2-2.5,6.2-8.1,6.9v4.5h29v-4.5c-14-0.8-17.8-14.8-17.8-14.8L8.1,125.6z"/>
	<path class="st0" d="M87.3,125.7L60.4,43H31v4.5c5.4,1.2,6.1,3.2,8.9,12.4L58,117.6c3.2,10,1.8,14.3-5.2,14.8v4.5h41.7v-4.5
		C89.1,131.6,89.2,131.6,87.3,125.7z"/>
</g>
<path class="st0" d="M304.8,73.1c-7.8,0-12.2,7.5-16.2,16.9V73.2c-8.7,0.7-19.9,3-28.7,5.5v2.2c6.5,4,6.5,4,6.5,14v29.3
	c0,7.8,0,7.8-5.5,9.1v3.7h36.4v-3.7c-8.7-1.2-8.7-1.2-8.7-9.1V94.9c3.7-3.4,8.8-4,11.8-4c4,0,7,0.7,8.2,1.4c1.6-1.4,4-4.9,4-10.2
	C312.6,76,310.3,73.1,304.8,73.1z"/>
<g>
	<g>
		<path class="st0" d="M198.6,73.1c-9.8,0-16.7,6.2-21.1,12.2v-12c-8.8,0.7-19.9,3-28.7,5.5V81c6.5,4,6.5,4,6.5,14v60.3
			c0,7.8,0,7.8-5.6,9.1v3.7h36.9v-3.7c-9.1-1.2-9.1-1.2-9.1-9.1V138c2.9,0.5,6,0.8,9.3,0.8c17.4,0,33.4-9.2,33.4-36.3
			C220.2,80.4,210.7,73.1,198.6,73.1z M187.1,133.5c-6.2,0-9.5-6.2-9.6-23.2V89.4c2.9-2.2,5.6-3.4,8.7-3.4c6.2,0,10.3,5.5,10.3,21.4
			C196.4,125.4,193.8,133.5,187.1,133.5z"/>
	</g>
</g>
<g>
	<path class="st0" d="M115.4,84.5c0-4.5,3.7-6.3,7.4-6.2c9.9,0.1,13.6,9.2,16.1,14.1h3.2V75.9c-3.3-1.1-9.2-2.7-18-2.7
		c-17.4,0-28.3,7.4-27.9,22.1c0.4,21.3,31.9,17.2,31.9,30.8c0,4.8-3.3,7.6-8.1,7.6c-8.8,0-13.7-6.5-19.2-14.3H98v16.3
		c4,1.8,11.5,3.2,22.7,3.2c15.5,0,26.8-7.7,26.8-23.2C147.4,95.5,115.4,97.4,115.4,84.5z"/>
</g>
<path class="st0" d="M366.7,116c-1,0.7-5.5,6.6-15.2,6.6c-12.4,0-18.5-8.1-18.7-22.2l0.1-4.8c0.4-12.2,3-17.2,8.4-17.2
	s7.1,5.1,7,17.2v4.8h19.9v-2.1c0-15.9-6.9-25.1-25.5-25.1c-15.9,0-30.4,10-30.4,33.8c0,21.7,13,31.9,29.9,31.9
	c22.4,0,26.2-19.6,26.5-20.9L366.7,116z"/>
<g>
	<path class="st0" d="M225.8,167.9v-10.3h2.6v10.3H225.8z"/>
	<path class="st0" d="M247.7,157.6v10.3h-2.6l-4.1-6.5l0,0v6.5h-2.6v-10.3h2.9l3.8,6.2l0,0v-6.2H247.7z"/>
	<path class="st0" d="M256.9,166.7l1.3-1.7c0.9,0.7,1.9,1.2,3.1,1.2c1.1,0,1.6-0.4,1.6-1.1c0-0.8-0.8-0.9-2.3-1.3
		c-1.8-0.4-3.4-1.1-3.4-3.1c0-1.8,1.4-3.2,4-3.2c1.8,0,3,0.5,4,1.3l-1.1,1.7c-0.9-0.7-1.9-1-2.9-1c-0.9,0-1.4,0.5-1.4,1
		c0,0.7,0.7,0.9,2.2,1.2c1.8,0.4,3.5,1,3.5,3.2c0,1.9-1.5,3.3-4.3,3.3C259.3,168.1,258,167.5,256.9,166.7z"/>
	<path class="st0" d="M277.6,167.9v-8.3h-3.2v-2h9.1v2h-3.2v8.3H277.6z"/>
	<path class="st0" d="M292.8,167.9v-10.3h2.6v10.3H292.8z"/>
	<path class="st0" d="M308.1,167.9v-8.3h-3.2v-2h9.1v2h-3.2v8.3H308.1z"/>
	<path class="st0" d="M329.9,157.6h2.6v6.5c0,2.5-1.7,4-4.7,4c-2.6,0-4.5-1.3-4.5-4v-6.5h2.6v6.5c0,1.2,0.6,2,2,2s2-0.8,2-2V157.6z"
		/>
	<path class="st0" d="M345,167.9v-8.3h-3.2v-2h9.1v2h-3.2v8.3H345z"/>
	<path class="st0" d="M360.3,167.9v-10.3h7.4v2h-4.8v2.1h4.1v2h-4.1v2.2h4.9v2H360.3z"/>
</g>
</svg>
